<svg width="27" height="20" viewBox="0 0 27 20" fill="none" xmlns="http://www.w3.org/2000/svg">
<path fill-rule="evenodd" clip-rule="evenodd" d="M9.10711 1.83362H9.07744H9.07743C7.99668 1.83361 7.1444 1.83361 6.45408 1.87836C5.75033 1.92399 5.15619 2.01865 4.60126 2.23578C3.0817 2.83033 1.87952 4.03251 1.28497 5.55207C1.06785 6.10699 0.973182 6.70114 0.927559 7.40488C0.882806 8.0952 0.882809 8.94748 0.882813 10.0282V10.0282V10.0579V10.0876V10.0876C0.882809 11.1684 0.882806 12.0206 0.927559 12.711C0.973182 13.4147 1.06785 14.0088 1.28497 14.5638C1.87952 16.0833 3.0817 17.2855 4.60126 17.8801C5.15619 18.0972 5.75033 18.1918 6.45408 18.2375C7.14441 18.2822 7.99671 18.2822 9.07749 18.2822H9.10711H10.8265H10.8561C11.9369 18.2822 12.7892 18.2822 13.4795 18.2375C14.1833 18.1918 14.7774 18.0972 15.3324 17.8801C16.8519 17.2855 18.0541 16.0833 18.6486 14.5638C18.8658 14.0088 18.9604 13.4147 19.0061 12.711C19.0508 12.0206 19.0508 11.1684 19.0508 10.0877V10.0876V10.0579V10.0282V10.0282C19.0508 9.70618 19.0508 9.40447 19.0496 9.12128C18.6299 9.13125 18.2019 9.13639 17.7675 9.13639C17.6275 9.13639 17.4882 9.13586 17.3496 9.1348C17.3508 9.41646 17.3508 9.7228 17.3508 10.0579C17.3508 11.1748 17.3504 11.9721 17.3096 12.601C17.2693 13.2227 17.1921 13.6208 17.0655 13.9443C16.6437 15.0223 15.7909 15.8752 14.7129 16.2969C14.3894 16.4235 13.9913 16.5007 13.3696 16.541C12.7407 16.5818 11.9434 16.5822 10.8265 16.5822H9.10711C7.9902 16.5822 7.19294 16.5818 6.56406 16.541C5.9423 16.5007 5.54425 16.4235 5.22069 16.2969C4.14271 15.8752 3.28988 15.0223 2.8681 13.9443C2.7415 13.6208 2.66431 13.2227 2.624 12.601C2.58323 11.9721 2.58281 11.1748 2.58281 10.0579C2.58281 8.941 2.58323 8.14374 2.624 7.51486C2.66431 6.8931 2.7415 6.49506 2.8681 6.17149C3.28988 5.09352 4.14271 4.24068 5.22069 3.81891C5.54425 3.69231 5.9423 3.61511 6.56406 3.5748C7.19293 3.53403 7.9902 3.53362 9.10711 3.53362H10.8265C11.9434 3.53362 12.7407 3.53403 13.3696 3.5748C13.9913 3.61511 14.3894 3.69231 14.7129 3.81891C15.5406 4.14275 16.2356 4.72072 16.7046 5.4596C17.0538 5.45275 17.4084 5.44924 17.7675 5.44924C18.0512 5.44924 18.3322 5.45144 18.61 5.45574C18.0029 3.98175 16.8197 2.81771 15.3324 2.23578C14.7774 2.01865 14.1833 1.92399 13.4795 1.87836C12.7892 1.83361 11.9369 1.83361 10.8562 1.83362H10.8562H10.8265H9.10711Z" fill="#738090"/>
<path d="M24.736 7.29309L2 7.29309" stroke="#738090" stroke-width="1.7" stroke-linecap="round" stroke-linejoin="round"/>
<path d="M21.0488 3.60547L24.736 7.29231L21.0488 10.9798" stroke="#738090" stroke-width="1.7" stroke-linecap="round" stroke-linejoin="round"/>
</svg>
