<svg width="24" height="24" viewBox="0 0 24 24" fill="none" xmlns="http://www.w3.org/2000/svg">
<path d="M9 21H15" stroke="black" stroke-width="1.6" stroke-linecap="round" stroke-linejoin="round"/>
<path d="M5.26904 9.74996C5.26779 8.86046 5.44262 7.97951 5.78343 7.1579C6.12423 6.33629 6.6243 5.59026 7.25477 4.9628C7.88529 4.33535 8.63371 3.83889 9.45691 3.50204C10.2802 3.16519 11.162 2.99461 12.0514 3.00013C15.7629 3.02772 18.7317 6.11276 18.7317 9.83471V10.5C18.7317 13.8576 19.4342 15.8061 20.0529 16.8711C20.1196 16.9848 20.1551 17.1141 20.1557 17.2461C20.1565 17.3779 20.1224 17.5077 20.057 17.6221C19.9915 17.7366 19.8971 17.8318 19.7831 17.8982C19.6691 17.9645 19.5397 17.9996 19.4078 18H4.59222C4.46034 17.9996 4.33087 17.9645 4.21689 17.8981C4.1029 17.8318 4.00843 17.7366 3.94301 17.622C3.87759 17.5075 3.84352 17.3778 3.84425 17.2459C3.84498 17.114 3.88047 16.9847 3.94716 16.8708C4.56621 15.8059 5.26903 13.8575 5.26903 10.5L5.26904 9.74996Z" stroke="black" stroke-width="1.6" stroke-linecap="round" stroke-linejoin="round"/>
</svg>
