<svg width="24" height="24" viewBox="0 0 24 24" fill="none" xmlns="http://www.w3.org/2000/svg">
<path d="M3.96569 12.75C3.60932 12.75 3.43086 13.1809 3.68284 13.4328L11.7172 21.4672C11.8734 21.6234 12.1266 21.6234 12.2828 21.4672L20.3172 13.4328C20.5691 13.1809 20.3907 12.75 20.0343 12.75H16.9C16.6791 12.75 16.5 12.5709 16.5 12.35V10.15C16.5 9.92909 16.3209 9.75 16.1 9.75H7.9C7.67909 9.75 7.5 9.92909 7.5 10.15V12.35C7.5 12.5709 7.32091 12.75 7.1 12.75H3.96569Z" stroke="#596479" stroke-width="1.5" stroke-linecap="round" stroke-linejoin="round"/>
<path d="M16.5 3.75H7.5" stroke="#596479" stroke-width="1.5" stroke-linecap="round" stroke-linejoin="round"/>
<path d="M16.5 6.75H7.5" stroke="#596479" stroke-width="1.5" stroke-linecap="round" stroke-linejoin="round"/>
</svg>
