<svg width="28" height="28" viewBox="0 0 28 28" fill="none" xmlns="http://www.w3.org/2000/svg">
<path fill-rule="evenodd" clip-rule="evenodd" d="M14 24.4961C19.799 24.4961 24.5 19.7951 24.5 13.9961C24.5 8.1971 19.799 3.49609 14 3.49609C8.20101 3.49609 3.5 8.1971 3.5 13.9961C3.5 19.7951 8.20101 24.4961 14 24.4961ZM10.3759 10.3759C10.6688 10.083 11.1437 10.083 11.4366 10.3759L14 12.9393L16.5634 10.3759C16.8563 10.083 17.3312 10.083 17.6241 10.3759C17.917 10.6688 17.917 11.1437 17.6241 11.4366L15.0607 14L17.6238 16.5631C17.9167 16.856 17.9167 17.3309 17.6238 17.6238C17.3309 17.9167 16.856 17.9167 16.5631 17.6238L14 15.0607L11.4369 17.6238C11.144 17.9167 10.6691 17.9167 10.3762 17.6238C10.0833 17.3309 10.0833 16.856 10.3762 16.5631L12.9393 14L10.3759 11.4366C10.083 11.1437 10.083 10.6688 10.3759 10.3759Z" fill="white" fill-opacity="0.8"/>
</svg>
