<svg width="26" height="26" viewBox="0 0 26 26" fill="none" xmlns="http://www.w3.org/2000/svg">
<path d="M13 22.75C18.3848 22.75 22.75 18.3848 22.75 13C22.75 7.61522 18.3848 3.25 13 3.25C7.61522 3.25 3.25 7.61522 3.25 13C3.25 18.3848 7.61522 22.75 13 22.75Z" stroke="#596479" stroke-width="1.5" stroke-miterlimit="10"/>
<path d="M3.80469 9.75H22.1941" stroke="#596479" stroke-width="1.5" stroke-linecap="round" stroke-linejoin="round"/>
<path d="M3.80469 16.25H22.194" stroke="#596479" stroke-width="1.5" stroke-linecap="round" stroke-linejoin="round"/>
<path d="M13 22.4883C15.2436 22.4883 17.0625 18.2402 17.0625 13C17.0625 7.75976 15.2436 3.51172 13 3.51172C10.7564 3.51172 8.9375 7.75976 8.9375 13C8.9375 18.2402 10.7564 22.4883 13 22.4883Z" stroke="#596479" stroke-width="1.5" stroke-miterlimit="10"/>
</svg>
