<svg width="27" height="20" viewBox="0 0 27 20" fill="none" xmlns="http://www.w3.org/2000/svg">
<path d="M1.73267 10.0579C1.73267 7.84613 1.73267 6.74025 2.07639 5.86175C2.58455 4.56299 3.61206 3.53548 4.91083 3.02732C5.78932 2.68359 6.8952 2.68359 9.10697 2.68359H10.8264C13.0381 2.68359 14.144 2.68359 15.0225 3.02732C16.3213 3.53548 17.3488 4.56299 17.8569 5.86175C18.2007 6.74025 18.2007 7.84613 18.2007 10.0579C18.2007 12.2697 18.2007 13.3755 17.8569 14.254C17.3488 15.5528 16.3213 16.5803 15.0225 17.0885C14.144 17.4322 13.0381 17.4322 10.8264 17.4322H9.10697C6.8952 17.4322 5.78932 17.4322 4.91083 17.0885C3.61206 16.5803 2.58455 15.5528 2.07639 14.254C1.73267 13.3755 1.73267 12.2697 1.73267 10.0579Z" fill="#130F26"/>
<rect x="0.999756" y="5.5" width="22" height="3.4" fill="#FDFDFD"/>
<path d="M24.736 7.29309L2.5 7.29309" stroke="#130F26" stroke-width="1.7" stroke-linecap="round" stroke-linejoin="round"/>
<path d="M21.0488 3.60547L24.736 7.29231L21.0488 10.9798" stroke="#130F26" stroke-width="1.7" stroke-linecap="round" stroke-linejoin="round"/>
</svg>
