<svg width="24" height="24" viewBox="0 0 24 24" fill="none" xmlns="http://www.w3.org/2000/svg">
<path d="M20.25 20.2503V10.8321C20.25 10.7276 20.2282 10.6242 20.1859 10.5287C20.1436 10.4331 20.0819 10.3475 20.0045 10.2771L12.504 3.45824C12.3659 3.33272 12.1861 3.26318 11.9995 3.26318C11.8129 3.26319 11.633 3.33275 11.495 3.45827L3.99545 10.2771C3.91814 10.3475 3.85637 10.4331 3.8141 10.5287C3.77183 10.6242 3.75 10.7276 3.75 10.8321V20.2503" stroke="#596479" stroke-width="1.5" stroke-miterlimit="10"/>
<path d="M1.5 20.25H22.5" stroke="#596479" stroke-width="1.5" stroke-miterlimit="10" stroke-linecap="round"/>
<path d="M14.2495 20.25V16.5C14.2495 15.2574 13.2422 14.25 11.9995 14.25V14.25C10.7569 14.25 9.74951 15.2574 9.74951 16.5V20.25" stroke="#596479" stroke-width="1.5" stroke-miterlimit="10" stroke-linecap="round"/>
</svg>
