<svg width="154" height="33" viewBox="0 0 154 33" fill="none" xmlns="http://www.w3.org/2000/svg">
<path d="M5.81055 26H9.84375L13.4805 12.7793H13.5625L17.1855 26H21.2188L26.4551 6.27148H22.1758L19.0449 20.4082H18.9629L15.3262 6.27148H11.7031L8.06641 20.4082H7.98438L4.86719 6.27148H0.587891L5.81055 26ZM35.6699 26.3418C40.6465 26.3418 43.627 23.9355 43.627 20.1484V20.1348C43.627 17.0312 41.7676 15.3496 37.6387 14.5293L35.5469 14.1055C33.2773 13.6543 32.2656 12.9297 32.2656 11.6855V11.6719C32.2656 10.2637 33.5371 9.29297 35.6562 9.2793C37.6934 9.2793 39.1152 10.2227 39.3203 11.7676L39.334 11.9316H43.2305L43.2168 11.6719C43.0254 8.21289 40.2227 5.92969 35.6562 5.92969C31.2812 5.92969 28.1367 8.30859 28.1367 11.918V11.9316C28.1367 14.8984 30.1055 16.7578 34.002 17.5371L36.0801 17.9473C38.5273 18.4531 39.498 19.123 39.498 20.4629V20.4766C39.498 21.9805 38.0625 22.9785 35.7793 22.9785C33.5234 22.9785 31.8965 22.0215 31.6367 20.4902L31.6094 20.3398H27.7129L27.7266 20.5586C27.959 24.1953 30.9805 26.3418 35.6699 26.3418ZM46.1562 26H49.834V12.6562H49.9434L55.2754 26H57.873L63.1914 12.6562H63.3145V26H66.9922V6.27148H62.2207L56.6152 20.4492H56.5332L50.9277 6.27148H46.1562V26Z" fill="#E60000"/>
<path d="M78.3398 26H82.5371L85.1758 15.6367H85.2578L87.9102 26H92.1621L96.0449 11.3438H92.1074L89.8789 22.2129H89.7969L87.1855 11.3438H83.3574L80.7598 22.2129H80.6777L78.4629 11.3438H74.4434L78.3398 26ZM101.473 26.2324C103.4 26.2324 104.959 25.3164 105.793 23.8125H105.875V26H109.867V15.9512C109.867 12.998 107.42 11.043 103.633 11.043C99.7637 11.043 97.4395 12.9844 97.2207 15.6914L97.207 15.8555H100.857L100.885 15.7324C101.076 14.7891 101.979 14.0918 103.469 14.0918C105.027 14.0918 105.875 14.8984 105.875 16.1973V17.0996L102.252 17.3184C98.6152 17.5508 96.5508 19.1094 96.5508 21.7754V21.8027C96.5508 24.3867 98.5332 26.2324 101.473 26.2324ZM100.502 21.5977V21.5703C100.502 20.5312 101.309 19.875 102.854 19.7793L105.875 19.5879V20.6406C105.875 22.1719 104.562 23.3203 102.771 23.3203C101.391 23.3203 100.502 22.6777 100.502 21.5977ZM112.547 26H116.539V6.27148H112.547V26ZM119.328 26H123.32V6.27148H119.328V26ZM132.686 26.3008C136.869 26.3008 138.893 23.8262 139.344 21.666L139.385 21.5156H135.721L135.693 21.5977C135.406 22.418 134.408 23.3203 132.768 23.3203C130.73 23.3203 129.459 21.9531 129.418 19.6152H139.508V18.3848C139.508 13.9551 136.814 11.043 132.521 11.043C128.229 11.043 125.48 14.0234 125.48 18.6855V18.6992C125.48 23.3887 128.201 26.3008 132.686 26.3008ZM132.59 14.0234C134.244 14.0234 135.434 15.0762 135.68 17.0996H129.459C129.719 15.1172 130.949 14.0234 132.59 14.0234ZM147.396 26.3008C148.23 26.3008 148.873 26.2188 149.324 26.1504V23.2246C149.078 23.252 148.818 23.293 148.463 23.293C147.26 23.293 146.645 22.8281 146.645 21.4609V14.3516H149.324V11.3438H146.645V7.76172H142.611V11.3438H140.574V14.3516H142.611V21.8984C142.611 25.043 144.143 26.3008 147.396 26.3008Z" fill="black"/>
<rect x="151" y="23" width="3" height="3" fill="#E60000"/>
</svg>
