<svg width="44" height="32" viewBox="0 0 44 32" fill="none" xmlns="http://www.w3.org/2000/svg">
<rect width="44" height="32" rx="5" fill="#D6DDEA"/>
<path d="M34.9927 21.2772C34.6386 21.1425 34.0842 21 33.3968 21C31.6371 21 30.3943 21.89 30.3855 23.1677C30.3745 24.1063 31.2687 24.6353 31.9451 24.9489C32.6391 25.2714 32.8711 25.4745 32.8689 25.7628C32.8645 26.2012 32.3146 26.3999 31.8032 26.3999C31.1004 26.3999 30.7165 26.3016 30.1259 26.0554L29.9071 25.9527L29.6574 27.4236C30.0852 27.6025 30.8562 27.756 31.6525 27.7692C33.5233 27.7692 34.7463 26.8847 34.7606 25.5253C34.776 24.7755 34.2921 24.209 33.2737 23.7408C32.6545 23.4371 32.2706 23.234 32.2706 22.9259C32.2706 22.6531 32.5995 22.3616 33.2869 22.3616C33.8797 22.3527 34.2921 22.4808 34.621 22.6145L34.7859 22.6884L35.0356 21.2672L34.9927 21.2772ZM39.5592 21.1193H38.1844C37.7566 21.1193 37.4343 21.2374 37.2474 21.6637L34.6034 27.6776H36.4742L36.8481 26.6915L39.1314 26.6937C39.1853 26.9245 39.3502 27.6776 39.3502 27.6776H41L39.5592 21.1193ZM27.8548 21.064H29.6376L28.5224 27.6257H26.7417L27.8548 21.0618V21.064ZM23.329 24.6806L23.5137 25.5916L25.2559 21.1193H27.1443L24.3386 27.6687H22.4546L20.9148 22.1231C20.8818 22.027 20.8433 21.9629 20.7509 21.9033C20.2285 21.6305 19.6467 21.4086 19 21.2529L19.0242 21.1148H21.8937C22.283 21.1303 22.5965 21.2529 22.7009 21.6703L23.3279 24.6839V24.6806H23.329ZM37.3595 25.3498L38.07 23.5144C38.0612 23.5343 38.2163 23.1357 38.3065 22.8894L38.4286 23.4559L38.841 25.3487H37.3584V25.3498H37.3595Z" fill="#2A2A2A"/>
</svg>
