<svg width="24" height="24" viewBox="0 0 24 24" fill="none" xmlns="http://www.w3.org/2000/svg">
<path d="M22.6091 9.25816L22.5888 9.24357L22.1327 9.87851C20.6822 11.8977 18.861 13.6225 16.7659 14.9612C16.1425 15.3596 15.3197 14.9471 15.2659 14.2092L15.198 13.2786C15.1488 12.602 15.1107 11.9246 15.0838 11.2471L15.083 11.2265L15.0625 11.2234L14.9132 11.2009L14.9095 11.2256L14.9132 11.2009C12.7493 10.8752 10.6089 11.9194 9.53376 13.8254L8.63145 15.4249L8.65323 15.4372L8.63145 15.4249C8.46798 15.7147 8.12823 15.856 7.80744 15.7677C7.48666 15.6793 7.26722 15.3839 7.27521 15.0513L7.33445 12.5874C7.42221 8.93734 10.4064 6.02407 14.0575 6.02407H15.0757H15.0996L15.1007 6.00022C15.1259 5.45406 15.1582 4.90815 15.198 4.36265L15.2659 3.43201C15.3197 2.69408 16.1425 2.28157 16.7659 2.67995C18.861 4.01861 20.6822 5.7435 22.1327 7.76268L22.5888 8.39761C22.7704 8.65038 22.7704 8.99082 22.5888 9.24357L22.6091 9.25816ZM8.80806 12.2282L8.79973 12.313L8.85255 12.2461C10.3313 10.3747 12.7187 9.40427 15.1291 9.76704L15.8948 9.88229C16.2416 9.93448 16.5013 10.2274 16.5116 10.5779C16.537 11.4436 16.5812 12.3088 16.6443 13.1731C16.6443 13.1731 16.6443 13.1731 16.6443 13.1731L16.6497 13.2476L16.6529 13.2918L16.689 13.2662C18.3347 12.1029 19.777 10.6725 20.9551 9.03255L20.9551 9.03255L21.0968 8.83518L21.1073 8.8206L21.0968 8.80602L20.9551 8.60865L20.9348 8.62323L20.9551 8.60864C19.777 6.96863 18.3347 5.53827 16.689 4.37501L16.6529 4.34945L16.6497 4.39362L16.6443 4.46807C16.6443 4.46807 16.6443 4.46808 16.6443 4.46808C16.5882 5.236 16.5471 6.00474 16.5208 6.77385C16.5075 7.16438 16.1869 7.47407 15.7962 7.47407H14.0575C11.3263 7.47407 9.07092 9.55233 8.80806 12.2282Z" fill="#596479" stroke="#E7EBF3" stroke-width="0.05"/>
<path d="M13.9813 3.21294L13.9813 3.213C13.9763 3.25386 13.9721 3.29523 13.9691 3.33708L13.9178 4.04089C13.907 4.18898 13.7806 4.30178 13.632 4.29657C11.3837 4.21769 9.11933 4.30197 6.9053 4.54942C5.56382 4.69935 4.48902 5.7579 4.33354 7.08731C3.93232 10.5178 3.93232 13.9833 4.33354 17.4138C4.48902 18.7432 5.56382 19.8017 6.9053 19.9516C10.263 20.3269 13.7364 20.3269 17.0941 19.9516C18.4356 19.8017 19.5104 18.7432 19.6658 17.4138C19.7839 16.4049 19.8672 15.3929 19.9158 14.3798C19.9207 14.277 19.9673 14.1806 20.0445 14.1124L20.028 14.0937L20.0446 14.1124C20.4084 13.7912 20.7609 13.4575 21.1014 13.1119C21.2142 12.9974 21.4096 13.0783 21.4062 13.237C21.375 14.6881 21.275 16.1381 21.1061 17.5822C20.8709 19.593 19.2559 21.1691 17.2551 21.3927C13.7905 21.7799 10.2089 21.7799 6.74424 21.3927C4.74355 21.1691 3.12853 19.593 2.89335 17.5822C2.47904 14.0398 2.47904 10.4612 2.89335 6.91887C3.12853 4.90809 4.74355 3.332 6.74424 3.1084C9.03398 2.85249 11.3747 2.76569 13.6991 2.84804C13.8774 2.85435 14.0043 3.03015 13.9813 3.21294Z" fill="#596479" stroke="#E7EBF3" stroke-width="0.05"/>
</svg>
