<svg width="32" height="32" viewBox="0 0 32 32" fill="none" xmlns="http://www.w3.org/2000/svg">
<circle cx="16" cy="16" r="15" fill="white" stroke="#D3D7DC"/>
<mask id="mask0_652_290" style="mask-type:alpha" maskUnits="userSpaceOnUse" x="1" y="1" width="30" height="30">
<circle cx="16" cy="16" r="15" fill="#D9D9D9"/>
</mask>
<g mask="url(#mask0_652_290)">
<path d="M-16 1H44V31H-16V1Z" fill="#00AFCA"/>
<path d="M16.4135 17.6394C18.6428 17.6394 20.45 15.8322 20.45 13.6029C20.45 11.3736 18.6428 9.56641 16.4135 9.56641C14.1842 9.56641 12.377 11.3736 12.377 13.6029C12.377 15.8322 14.1842 17.6394 16.4135 17.6394Z" fill="#FEC50C"/>
<path d="M16.412 9.02069C16.652 9.01769 16.742 8.86769 16.742 8.68769C16.742 8.44769 16.412 7.30469 16.412 7.30469C16.412 7.30469 16.082 8.44769 16.082 8.68769C16.082 8.86769 16.172 9.02069 16.412 9.02069Z" fill="#FEC50C"/>
<path d="M15.6942 22.3477C15.5862 22.3537 15.4812 22.3676 15.3782 22.4006C15.2372 22.4197 15.1022 22.4686 14.9622 22.4917L14.9062 22.5007L14.8122 22.5097C14.8182 22.5356 14.8222 22.5616 14.8222 22.5877C14.8222 22.6147 14.8192 22.6406 14.8122 22.6627C14.8062 22.6837 14.7872 22.7096 14.7722 22.7257C14.7522 22.7476 14.7312 22.7666 14.7062 22.7786C14.6822 22.7906 14.6552 22.7956 14.6282 22.7977C14.6012 22.7986 14.5732 22.7977 14.5472 22.7876C14.5202 22.7786 14.4952 22.7617 14.4722 22.7416C14.4442 22.7486 14.4152 22.7536 14.3882 22.7566C14.3602 22.7596 14.3342 22.7596 14.3092 22.7566C14.2812 22.7486 14.2522 22.7396 14.2252 22.7287C14.198 22.7174 14.1719 22.7037 14.1472 22.6876C14.0452 22.7476 13.9312 22.8046 13.8692 22.9096C13.8342 22.9576 13.8272 23.0126 13.8192 23.0696C13.8142 23.1397 13.8322 23.2136 13.8622 23.2786C13.8732 23.2976 13.8822 23.2096 13.9162 23.1976C13.9732 23.1506 14.0442 23.1166 14.1162 23.0977C14.1772 23.0666 14.1692 23.0996 14.1442 23.1476C14.1382 23.1727 14.1042 23.2676 14.1502 23.2196C14.3532 23.1296 14.5782 23.1116 14.7972 23.0947C15.1152 23.0617 15.4342 23.0546 15.7532 23.0506C16.0532 23.0546 16.3532 23.0587 16.6532 23.0696C16.7962 23.0737 16.9402 23.1056 17.0812 23.0816C17.1152 23.0726 17.1682 23.0707 17.1882 23.0506C17.1242 23.0137 17.0492 23.0126 16.9782 23.0036H16.4062C16.2472 22.9876 16.0812 22.9856 15.9312 22.9256C15.8912 22.9096 15.8542 22.8716 15.8162 22.9126C15.7592 22.9327 15.6982 22.9466 15.6382 22.9507C15.5332 22.9586 15.4282 22.9366 15.3312 22.8976C15.4012 22.8007 15.4852 22.7156 15.5622 22.6256C15.5002 22.6156 15.4402 22.6027 15.3782 22.5877C15.4872 22.5127 15.5882 22.4276 15.6942 22.3477Z" fill="#FEC50C"/>
<path d="M20.3666 23.384C20.1493 23.5145 19.9834 23.2831 19.8017 23.2137C19.672 23.2842 19.6598 23.52 19.5386 23.6316C19.3936 23.7967 19.2158 23.5855 19.229 23.4227C19.0556 23.5689 18.9679 23.9003 18.6873 23.8561C18.5544 23.7476 18.4557 23.52 18.3542 23.7791C18.2714 23.9058 18.0509 24.086 17.9367 23.8948C17.9013 23.7259 17.8167 23.5273 17.7248 23.7955C17.6617 23.9853 17.4593 24.1249 17.2634 24.0418C17.1562 23.9541 17.3494 23.63 17.2129 23.653C17.0089 23.7879 16.8903 24.1228 16.6056 24.096C16.4951 23.9719 16.6727 23.7616 16.5515 23.6239C16.4084 23.8076 16.2496 24.0766 16.002 24.096C15.8824 23.999 16.0067 23.7209 15.9303 23.6798C15.6763 23.8321 15.4083 24.1036 15.0888 24.0186C15.2133 23.5424 15.7335 23.3753 16.171 23.3382C16.9237 23.2457 17.7155 23.4158 18.4397 23.1441C18.5567 23.0729 18.8402 22.9719 18.7393 22.8068C18.6499 22.6764 18.9719 22.7274 19.0028 22.5751C18.9836 22.3822 19.1506 22.4087 19.3137 22.3919C20.045 22.3603 20.7674 22.5143 21.4965 22.5405C21.5516 22.8957 21.1575 23.1452 20.8402 23.0355C20.6886 23.06 20.4614 22.687 20.5059 22.9584C20.4754 23.1008 20.4968 23.2889 20.3666 23.384V23.384ZM14.1446 22.6566C14.3139 22.8115 14.4326 22.6274 14.5909 22.5601C15.1217 22.3776 15.5847 22.0585 16.0413 21.7398C16.3179 21.5109 16.5577 21.214 16.9292 21.1398C17.6538 20.9207 18.4241 20.9473 19.1516 20.7451C19.7055 19.9867 20.6464 19.7161 21.4345 19.2802C21.6115 19.2252 21.6798 19.0795 21.7364 18.9187C22.0372 18.4438 22.447 18.023 22.9317 17.7356C23.161 17.6103 23.4346 17.5381 23.6942 17.5954C23.6756 17.9046 23.4983 18.1787 23.2841 18.3925C23.4593 18.3887 23.61 18.2779 23.7871 18.2842C23.8478 18.6015 23.5051 18.7676 23.3228 18.9652C23.4243 18.9888 23.8133 19.0182 23.6013 19.12C23.3312 19.3075 23.0227 19.4362 22.7733 19.6539C23.0034 19.6953 23.0296 19.7442 22.7956 19.8274C22.669 19.9132 22.4254 19.9432 22.4018 20.1105C22.5757 20.2173 22.3218 20.3234 22.2239 20.3581C22.0366 20.4018 21.8399 20.4831 22.0886 20.6254C21.9946 20.7675 21.7927 20.7978 21.628 20.7838C21.6779 20.9449 21.7503 21.1251 21.5412 21.1962C21.0725 21.5505 20.5224 21.8083 19.9332 21.8672C20.6693 21.9238 21.4274 21.7872 22.0564 21.3869C22.1394 21.2887 22.5748 21.1832 22.3313 21.1006C22.2166 21.0529 21.9708 20.9999 21.9542 20.9125C22.2948 20.7023 22.7241 20.7771 23.0906 20.6522C23.1001 20.5336 22.8118 20.5666 22.7044 20.5396C22.4481 20.5186 22.4631 20.4532 22.7102 20.4289C23.0229 20.3461 23.377 20.3298 23.64 20.126C23.4259 20.0268 23.1565 20.1141 22.928 20.0331C23.3154 19.8636 23.7723 19.8466 24.1198 19.592C24.2781 19.4159 23.917 19.4709 23.8118 19.4752C23.5973 19.5125 23.4981 19.4098 23.7419 19.3207C24.158 19.0139 24.6848 18.8146 24.9771 18.3698C25.0464 18.2702 25.1401 17.9702 24.9193 18.0781C24.6289 18.1747 24.3734 18.5012 24.0425 18.4002C24.6944 17.8949 25.3148 17.3196 25.7605 16.6203C25.7835 16.4186 25.4669 16.3968 25.3845 16.5551C24.9656 16.9588 24.5865 17.4352 24.0502 17.6882C24.5638 17.1925 24.9885 16.6055 25.359 15.9971C25.4384 15.8161 25.6519 15.5985 25.536 15.3976C25.3493 15.243 25.1156 15.3845 25.0186 15.5695C24.693 15.9946 24.4457 16.4908 24.027 16.837C24.3936 16.1374 24.7731 15.3926 24.7824 14.5856C24.7812 14.4195 24.7479 14.1748 24.5223 14.2058C24.3434 14.2379 24.3859 14.5056 24.3122 14.641C24.1498 15.1923 24.0736 15.7893 23.7407 16.2721C23.8156 15.8241 23.9466 15.3571 23.846 14.9047C23.799 14.7025 23.4725 14.7895 23.5146 14.9896C23.1245 16.9654 21.7988 18.6934 20.0649 19.693C19.271 20.1421 18.3842 20.4317 17.482 20.563C17.2393 20.6161 16.9768 20.585 16.7448 20.6677C16.1828 21.0987 15.8424 21.8199 15.1308 22.0458C14.8118 22.2043 14.3959 22.2364 14.1678 22.5328C14.1481 22.5706 14.1438 22.6146 14.1446 22.6566" fill="#FEC50C"/>
<path d="M16.2749 20.6517C16.1699 20.8424 16.1081 21.0615 15.9731 21.2322C15.5669 20.8625 14.978 20.8747 14.4627 20.8501C14.0374 20.8274 13.5749 20.7882 13.2458 20.4849C12.8996 20.2013 12.6171 19.8331 12.2302 19.6031C11.8772 19.5071 11.5213 19.3869 11.2374 19.1449C10.6308 18.6505 10.2834 17.9168 9.69066 17.4069C9.57765 17.2957 9.44439 17.2095 9.31779 17.1151C9.19749 17.1444 9.25194 17.4041 9.10473 17.2717C9.02463 17.2147 8.82429 17.2092 8.80623 17.2888C8.98746 17.5276 9.16887 17.8003 9.19398 18.1057C9.07038 18.1184 8.85063 18.0796 8.78937 18.1256C8.9535 18.3716 9.16389 18.5898 9.40293 18.7635C9.28827 18.7819 9.06234 18.7719 9.01839 18.8181C9.25566 19.0115 9.51009 19.2091 9.8208 19.2588C9.8844 19.3426 9.7278 19.5045 9.8595 19.5761C9.93585 19.6073 10.1878 19.6595 10.0143 19.7463C9.89517 19.8266 9.93936 20.0136 10.0917 20.0094C10.188 20.0586 10.4042 20.0707 10.4211 20.1558C10.3357 20.2427 10.0702 20.3457 10.2962 20.427C10.5074 20.5442 10.7482 20.6202 10.9894 20.6286C10.8683 20.7304 10.7192 20.7882 10.5947 20.8839C11.1512 21.2103 11.7681 21.4248 12.3777 21.6315C12.6204 21.7126 12.8659 21.7882 13.1175 21.8358C12.3864 21.7936 11.6798 21.5772 11.014 21.281C10.6689 21.1296 10.3215 20.9834 9.96783 20.853C10.1229 20.7723 10.3023 20.7526 10.4631 20.6828C10.1293 20.6159 9.76455 20.594 9.47109 20.4105C9.51609 20.3302 9.68658 20.3264 9.78087 20.2855C9.9582 20.2431 10.0682 20.1915 9.81816 20.1761C9.56601 20.1077 9.27681 20.1384 9.0546 19.9863C9.06891 19.8951 9.30147 19.9269 9.39618 19.8875C9.51546 19.867 9.64806 19.8498 9.74337 19.7696C9.35355 19.608 8.84367 19.7225 8.53833 19.3782C8.46792 19.2471 8.757 19.3527 8.83932 19.3308C9.04851 19.3308 9.27333 19.3973 9.47253 19.313C8.90451 19.0636 8.29608 18.8301 7.86288 18.3689C7.81479 18.2947 7.67067 18.0921 7.78695 18.0671C8.12412 18.1117 8.36817 18.4797 8.72883 18.4224C8.77674 18.3578 8.51931 18.252 8.45505 18.1596C7.92921 17.7084 7.41885 17.2187 7.0503 16.6277C7.02495 16.4303 7.33521 16.4007 7.4169 16.5531C7.81905 16.9405 8.18232 17.3925 8.6832 17.6569C8.86092 17.7431 8.58114 17.5549 8.54388 17.4866C8.08107 16.9492 7.64049 16.3816 7.31703 15.7487C7.25913 15.6346 7.16319 15.4281 7.33641 15.3674C7.5096 15.2806 7.68144 15.3988 7.76925 15.5476C8.10951 15.9767 8.35989 16.4868 8.78376 16.8443C8.42265 16.1436 8.03709 15.4059 8.02776 14.5995C8.03625 14.4432 8.0463 14.2067 8.25828 14.2131C8.43627 14.1861 8.40816 14.414 8.46648 14.5227C8.64186 15.1151 8.71833 15.7563 9.07014 16.2794C8.99244 15.8399 8.87805 15.3873 8.95404 14.9406C8.97156 14.7939 9.13671 14.7495 9.2445 14.8381C9.33165 15.0514 9.3498 15.3148 9.42921 15.5429C9.88101 17.0885 10.8955 18.4478 12.2174 19.3601C13.3062 20.1068 14.5983 20.5526 15.917 20.6303C16.0361 20.6407 16.1557 20.6443 16.275 20.6516" fill="#FEC50C"/>
<path d="M14.6003 22.7045C14.6395 22.7045 14.6713 22.6727 14.6713 22.6335C14.6713 22.5943 14.6395 22.5625 14.6003 22.5625C14.5611 22.5625 14.5293 22.5943 14.5293 22.6335C14.5293 22.6727 14.5611 22.7045 14.6003 22.7045Z" fill="#FEC50C"/>
<path d="M14.5954 22.6516C14.6113 22.6516 14.6243 22.6387 14.6243 22.6227C14.6243 22.6067 14.6113 22.5938 14.5954 22.5938C14.5794 22.5938 14.5664 22.6067 14.5664 22.6227C14.5664 22.6387 14.5794 22.6516 14.5954 22.6516Z" fill="#FEC50C" stroke="#00AFCA" stroke-width="0.1905"/>
</g>
</svg>
