<svg width="30" height="30" viewBox="0 0 30 30" fill="none" xmlns="http://www.w3.org/2000/svg">
<path d="M-15 0H45V30H-15V0Z" fill="#006600"/>
<path d="M-15 0H45V21.4286H-15V0Z" fill="white"/>
<path d="M-15 0H45V8.57143H-15V0Z" fill="#CC0000"/>
<path d="M13.9822 14.615C14.0318 14.5087 14.1078 14.4255 14.1987 14.3778C14.2896 14.3302 14.3905 14.3207 14.4861 14.3509C14.5817 14.3811 14.6669 14.4492 14.7286 14.545C14.7904 14.6409 14.8254 14.7591 14.8285 14.882V17.1451H15.1699V14.882C15.1729 14.7591 15.2079 14.6409 15.2697 14.545C15.3315 14.4492 15.4166 14.3811 15.5122 14.3509C15.6078 14.3207 15.7087 14.3302 15.7996 14.3778C15.8905 14.4255 15.9665 14.5087 16.0161 14.615C16.0695 14.4143 16.0839 14.2007 16.0582 13.9918C16.0324 13.7828 15.9672 13.5845 15.8679 13.4131C15.7686 13.2417 15.6381 13.1021 15.487 13.0058C15.336 12.9096 15.1688 12.8594 14.9992 12.8594C14.8295 12.8594 14.6623 12.9096 14.5113 13.0058C14.3603 13.1021 14.2297 13.2417 14.1304 13.4131C14.0312 13.5845 13.9659 13.7828 13.9402 13.9918C13.9144 14.2007 13.9288 14.4143 13.9822 14.615Z" fill="#F8C300"/>
<path d="M13.9277 14.106C14.1341 14.0741 14.3486 14.092 14.5408 14.1573C14.733 14.2226 14.8934 14.3319 14.9992 14.4699C15.105 14.3319 15.2653 14.2226 15.4575 14.1573C15.6498 14.092 15.8642 14.0741 16.0706 14.106C16.035 13.91 15.9069 13.7303 15.71 13.6002C15.513 13.4701 15.2605 13.3984 14.9992 13.3984C14.7378 13.3984 14.4853 13.4701 14.2884 13.6002C14.0914 13.7303 13.9633 13.91 13.9277 14.106Z" fill="white"/>
<path d="M14.8054 16.0742C14.7788 16.3632 14.6694 16.639 14.4897 16.8703C14.3101 17.1016 14.0674 17.279 13.7893 17.3823C13.5112 17.4855 13.2089 17.5105 12.917 17.4543C12.625 17.3982 12.3552 17.2632 12.1381 17.0647C12.0454 17.2917 11.9008 17.4951 11.7155 17.6595C11.5301 17.8239 11.3087 17.9449 11.0682 18.0135C10.8277 18.0821 10.5743 18.0964 10.3273 18.0552C10.0803 18.0141 9.84613 17.9187 9.64258 17.7762C9.79505 19.2599 12.0762 18.957 12.2462 17.5143C12.9628 18.741 14.5386 18.3897 14.9997 16.887L14.8054 16.0742Z" fill="#F8C300"/>
<path d="M13.3923 18.7305C13.0537 19.3702 12.3771 19.4801 11.7852 18.9637C11.7852 18.9637 12.0231 18.8165 12.2778 18.776C12.2301 18.598 12.328 18.3519 12.466 18.2188C12.6108 18.3054 12.8128 18.4789 12.8642 18.6807C13.221 18.6402 13.3923 18.7305 13.3923 18.7305L13.3923 18.7305Z" fill="#F8C300"/>
<path fill-rule="evenodd" clip-rule="evenodd" d="M19.0892 20.8962C16.4213 19.904 13.5798 19.904 10.9119 20.8962L10.7148 20.0691C13.5114 19.029 16.4898 19.029 19.2863 20.0691L19.0892 20.8962Z" fill="#F8C300"/>
<path d="M13.9277 9.93569H16.0706L14.337 11.26L14.9992 9.11719L15.6613 11.26L13.9277 9.93569Z" fill="#F8C300"/>
</svg>
